<svg width="70" height="70" viewBox="0 0 70 70" fill="none" xmlns="http://www.w3.org/2000/svg">
<path d="M57.2183 0L12.7817 0C5.69187 0 0 5.69187 0 12.7817L0 57.2183C0 64.3081 5.69187 70 12.7817 70H57.2183C64.2083 70 70 64.3081 70 57.2183V12.7817C70 5.69187 64.3081 0 57.2183 0ZM46.4337 17.475C51.6262 17.475 55.8203 21.669 55.8203 26.8616C55.8203 28.4593 55.4208 29.9572 54.7218 31.3552C53.5235 30.4565 52.2254 29.6576 50.8274 29.1583C51.2268 28.4593 51.4265 27.6605 51.4265 26.8616C51.4265 24.1655 49.2297 21.9686 46.5335 21.9686C43.8374 21.9686 41.6405 24.1655 41.6405 26.8616C41.6405 27.6605 41.8402 28.4593 42.2397 29.1583C40.8417 29.6576 39.4437 30.3566 38.3452 31.3552C37.5464 29.9572 37.2468 28.4593 37.2468 26.8616C37.0471 21.669 41.2411 17.475 46.4337 17.475ZM23.5663 52.525C18.3738 52.525 14.1797 48.331 14.1797 43.1384H18.6733C18.6733 45.8345 20.8702 48.0314 23.5663 48.0314C26.2625 48.0314 28.4593 45.8345 28.4593 43.1384H32.9529C32.9529 48.331 28.7589 52.525 23.5663 52.525ZM23.5663 39.3438C17.5749 39.3438 12.6819 34.4508 12.6819 28.4593C12.6819 22.4679 17.5749 17.475 23.5663 17.475C29.5578 17.475 34.5506 22.368 34.5506 28.4593C34.4508 34.4508 29.5578 39.3438 23.5663 39.3438ZM46.4337 52.525C40.4422 52.525 35.4494 47.632 35.4494 41.6405C35.4494 35.5492 40.3424 30.6562 46.4337 30.6562C52.4251 30.6562 57.3181 35.5492 57.3181 41.6405C57.3181 47.632 52.4251 52.525 46.4337 52.525ZM52.9244 41.5407C52.9244 45.1355 50.0285 47.9315 46.4337 47.9315C42.8388 47.9315 39.9429 45.0357 39.9429 41.5407C39.9429 37.9458 42.8388 35.0499 46.4337 35.0499C50.0285 35.1498 52.9244 38.0456 52.9244 41.5407ZM29.9572 28.4593C29.9572 32.0542 27.0613 34.9501 23.4665 34.9501C19.8716 34.9501 16.9757 32.0542 16.9757 28.4593C16.9757 24.8645 19.8716 21.9686 23.4665 21.9686C27.1612 21.9686 29.9572 24.8645 29.9572 28.4593Z" fill="#D9B432"/>
</svg>
